<mxfile host="app.diagrams.net" agent="Mozilla/5.0 (Windows NT 10.0; Win64; x64) AppleWebKit/537.36 (KHTML, like Gecko) Chrome/134.0.0.0 Safari/537.36" version="26.1.3">
  <diagram name="Página-1" id="bULvQzcwp_Uabz2xOqhD">
    <mxGraphModel dx="954" dy="1735" grid="1" gridSize="10" guides="1" tooltips="1" connect="1" arrows="1" fold="1" page="1" pageScale="1" pageWidth="827" pageHeight="1169" math="0" shadow="0">
      <root>
        <mxCell id="0" />
        <mxCell id="1" parent="0" />
        <mxCell id="jR1Ga3pu7Wgp8OdSPmGq-46" value="" style="rounded=0;whiteSpace=wrap;html=1;" vertex="1" parent="1">
          <mxGeometry x="20" y="-20" width="900" height="540" as="geometry" />
        </mxCell>
        <mxCell id="jR1Ga3pu7Wgp8OdSPmGq-1" value="Coordenador Pedagógico" style="shape=umlActor;verticalLabelPosition=bottom;verticalAlign=top;html=1;outlineConnect=0;" vertex="1" parent="1">
          <mxGeometry x="90" y="70" width="30" height="60" as="geometry" />
        </mxCell>
        <mxCell id="jR1Ga3pu7Wgp8OdSPmGq-5" value="" style="endArrow=none;html=1;rounded=0;dashed=1;dashPattern=8 8;entryX=1;entryY=1;entryDx=0;entryDy=0;entryPerimeter=0;" edge="1" parent="1" source="jR1Ga3pu7Wgp8OdSPmGq-12" target="jR1Ga3pu7Wgp8OdSPmGq-1">
          <mxGeometry width="50" height="50" relative="1" as="geometry">
            <mxPoint x="120" y="440" as="sourcePoint" />
            <mxPoint x="70" y="240" as="targetPoint" />
          </mxGeometry>
        </mxCell>
        <mxCell id="jR1Ga3pu7Wgp8OdSPmGq-6" value="Tela que mostra os professores no sistema" style="shape=umlBoundary;whiteSpace=wrap;html=1;" vertex="1" parent="1">
          <mxGeometry x="300" y="70" width="100" height="80" as="geometry" />
        </mxCell>
        <mxCell id="jR1Ga3pu7Wgp8OdSPmGq-7" value="Control Object" style="ellipse;shape=umlControl;whiteSpace=wrap;html=1;" vertex="1" parent="1">
          <mxGeometry x="570" y="60" width="70" height="80" as="geometry" />
        </mxCell>
        <mxCell id="jR1Ga3pu7Wgp8OdSPmGq-8" value="Professor" style="html=1;whiteSpace=wrap;" vertex="1" parent="1">
          <mxGeometry x="740" y="85" width="110" height="50" as="geometry" />
        </mxCell>
        <mxCell id="jR1Ga3pu7Wgp8OdSPmGq-9" value="" style="endArrow=none;html=1;rounded=0;dashed=1;dashPattern=8 8;entryX=0.58;entryY=1.025;entryDx=0;entryDy=0;entryPerimeter=0;" edge="1" parent="1" source="jR1Ga3pu7Wgp8OdSPmGq-16" target="jR1Ga3pu7Wgp8OdSPmGq-6">
          <mxGeometry width="50" height="50" relative="1" as="geometry">
            <mxPoint x="358" y="440" as="sourcePoint" />
            <mxPoint x="130" y="140" as="targetPoint" />
          </mxGeometry>
        </mxCell>
        <mxCell id="jR1Ga3pu7Wgp8OdSPmGq-10" value="" style="endArrow=none;html=1;rounded=0;dashed=1;dashPattern=8 8;entryX=0.5;entryY=1.038;entryDx=0;entryDy=0;entryPerimeter=0;" edge="1" parent="1" source="jR1Ga3pu7Wgp8OdSPmGq-20" target="jR1Ga3pu7Wgp8OdSPmGq-7">
          <mxGeometry width="50" height="50" relative="1" as="geometry">
            <mxPoint x="605" y="430" as="sourcePoint" />
            <mxPoint x="140" y="150" as="targetPoint" />
          </mxGeometry>
        </mxCell>
        <mxCell id="jR1Ga3pu7Wgp8OdSPmGq-11" value="" style="endArrow=none;html=1;rounded=0;dashed=1;dashPattern=8 8;entryX=0.5;entryY=1;entryDx=0;entryDy=0;" edge="1" parent="1" source="jR1Ga3pu7Wgp8OdSPmGq-24" target="jR1Ga3pu7Wgp8OdSPmGq-8">
          <mxGeometry width="50" height="50" relative="1" as="geometry">
            <mxPoint x="795" y="440" as="sourcePoint" />
            <mxPoint x="150" y="160" as="targetPoint" />
          </mxGeometry>
        </mxCell>
        <mxCell id="jR1Ga3pu7Wgp8OdSPmGq-14" value="" style="endArrow=none;html=1;rounded=0;dashed=1;dashPattern=8 8;" edge="1" parent="1" target="jR1Ga3pu7Wgp8OdSPmGq-12">
          <mxGeometry width="50" height="50" relative="1" as="geometry">
            <mxPoint x="120" y="440" as="sourcePoint" />
            <mxPoint x="120" y="130" as="targetPoint" />
          </mxGeometry>
        </mxCell>
        <mxCell id="jR1Ga3pu7Wgp8OdSPmGq-12" value="" style="html=1;points=[[0,0,0,0,5],[0,1,0,0,-5],[1,0,0,0,5],[1,1,0,0,-5]];perimeter=orthogonalPerimeter;outlineConnect=0;targetShapes=umlLifeline;portConstraint=eastwest;newEdgeStyle={&quot;curved&quot;:0,&quot;rounded&quot;:0};" vertex="1" parent="1">
          <mxGeometry x="120" y="170" width="10" height="230" as="geometry" />
        </mxCell>
        <mxCell id="jR1Ga3pu7Wgp8OdSPmGq-15" value="" style="endArrow=classic;html=1;rounded=0;exitX=1;exitY=0;exitDx=0;exitDy=5;exitPerimeter=0;entryX=0;entryY=0;entryDx=0;entryDy=5;entryPerimeter=0;" edge="1" parent="1" source="jR1Ga3pu7Wgp8OdSPmGq-12" target="jR1Ga3pu7Wgp8OdSPmGq-16">
          <mxGeometry width="50" height="50" relative="1" as="geometry">
            <mxPoint x="240" y="260" as="sourcePoint" />
            <mxPoint x="340" y="165" as="targetPoint" />
          </mxGeometry>
        </mxCell>
        <mxCell id="jR1Ga3pu7Wgp8OdSPmGq-17" value="" style="endArrow=none;html=1;rounded=0;dashed=1;dashPattern=8 8;entryX=0.58;entryY=1.025;entryDx=0;entryDy=0;entryPerimeter=0;" edge="1" parent="1" target="jR1Ga3pu7Wgp8OdSPmGq-16">
          <mxGeometry width="50" height="50" relative="1" as="geometry">
            <mxPoint x="356" y="440" as="sourcePoint" />
            <mxPoint x="358" y="152" as="targetPoint" />
          </mxGeometry>
        </mxCell>
        <mxCell id="jR1Ga3pu7Wgp8OdSPmGq-16" value="" style="html=1;points=[[0,0,0,0,5],[0,1,0,0,-5],[1,0,0,0,5],[1,1,0,0,-5]];perimeter=orthogonalPerimeter;outlineConnect=0;targetShapes=umlLifeline;portConstraint=eastwest;newEdgeStyle={&quot;curved&quot;:0,&quot;rounded&quot;:0};" vertex="1" parent="1">
          <mxGeometry x="350" y="170" width="10" height="200" as="geometry" />
        </mxCell>
        <mxCell id="jR1Ga3pu7Wgp8OdSPmGq-18" value="visualizarProfessores()" style="text;html=1;align=center;verticalAlign=middle;whiteSpace=wrap;rounded=0;fontSize=11;" vertex="1" parent="1">
          <mxGeometry x="130" y="150" width="220" height="30" as="geometry" />
        </mxCell>
        <mxCell id="jR1Ga3pu7Wgp8OdSPmGq-19" value="" style="endArrow=classic;html=1;rounded=0;exitX=1;exitY=0;exitDx=0;exitDy=5;exitPerimeter=0;entryX=0;entryY=0;entryDx=0;entryDy=5;entryPerimeter=0;" edge="1" parent="1" source="jR1Ga3pu7Wgp8OdSPmGq-16" target="jR1Ga3pu7Wgp8OdSPmGq-20">
          <mxGeometry width="50" height="50" relative="1" as="geometry">
            <mxPoint x="460" y="230" as="sourcePoint" />
            <mxPoint x="540" y="200" as="targetPoint" />
          </mxGeometry>
        </mxCell>
        <mxCell id="jR1Ga3pu7Wgp8OdSPmGq-21" value="" style="endArrow=none;html=1;rounded=0;dashed=1;dashPattern=8 8;entryX=0.5;entryY=1.038;entryDx=0;entryDy=0;entryPerimeter=0;" edge="1" parent="1" target="jR1Ga3pu7Wgp8OdSPmGq-20">
          <mxGeometry width="50" height="50" relative="1" as="geometry">
            <mxPoint x="605" y="430" as="sourcePoint" />
            <mxPoint x="605" y="143" as="targetPoint" />
          </mxGeometry>
        </mxCell>
        <mxCell id="jR1Ga3pu7Wgp8OdSPmGq-20" value="" style="html=1;points=[[0,0,0,0,5],[0,1,0,0,-5],[1,0,0,0,5],[1,1,0,0,-5]];perimeter=orthogonalPerimeter;outlineConnect=0;targetShapes=umlLifeline;portConstraint=eastwest;newEdgeStyle={&quot;curved&quot;:0,&quot;rounded&quot;:0};" vertex="1" parent="1">
          <mxGeometry x="600" y="170" width="10" height="200" as="geometry" />
        </mxCell>
        <mxCell id="jR1Ga3pu7Wgp8OdSPmGq-22" value="enviaSolicitacao()" style="text;html=1;align=center;verticalAlign=middle;whiteSpace=wrap;rounded=0;fontSize=11;" vertex="1" parent="1">
          <mxGeometry x="370" y="150" width="220" height="30" as="geometry" />
        </mxCell>
        <mxCell id="jR1Ga3pu7Wgp8OdSPmGq-23" value="" style="endArrow=classic;html=1;rounded=0;exitX=1;exitY=0;exitDx=0;exitDy=5;exitPerimeter=0;entryX=0;entryY=0;entryDx=0;entryDy=5;entryPerimeter=0;" edge="1" parent="1" source="jR1Ga3pu7Wgp8OdSPmGq-20" target="jR1Ga3pu7Wgp8OdSPmGq-24">
          <mxGeometry width="50" height="50" relative="1" as="geometry">
            <mxPoint x="730" y="300" as="sourcePoint" />
            <mxPoint x="780" y="175" as="targetPoint" />
          </mxGeometry>
        </mxCell>
        <mxCell id="jR1Ga3pu7Wgp8OdSPmGq-25" value="" style="endArrow=none;html=1;rounded=0;dashed=1;dashPattern=8 8;entryX=0.5;entryY=1;entryDx=0;entryDy=0;" edge="1" parent="1" source="jR1Ga3pu7Wgp8OdSPmGq-38" target="jR1Ga3pu7Wgp8OdSPmGq-24">
          <mxGeometry width="50" height="50" relative="1" as="geometry">
            <mxPoint x="795" y="440" as="sourcePoint" />
            <mxPoint x="795" y="135" as="targetPoint" />
          </mxGeometry>
        </mxCell>
        <mxCell id="jR1Ga3pu7Wgp8OdSPmGq-24" value="" style="html=1;points=[[0,0,0,0,5],[0,1,0,0,-5],[1,0,0,0,5],[1,1,0,0,-5]];perimeter=orthogonalPerimeter;outlineConnect=0;targetShapes=umlLifeline;portConstraint=eastwest;newEdgeStyle={&quot;curved&quot;:0,&quot;rounded&quot;:0};" vertex="1" parent="1">
          <mxGeometry x="790" y="170" width="10" height="40" as="geometry" />
        </mxCell>
        <mxCell id="jR1Ga3pu7Wgp8OdSPmGq-26" value="consultarProfessores()" style="text;html=1;align=center;verticalAlign=middle;whiteSpace=wrap;rounded=0;fontSize=11;" vertex="1" parent="1">
          <mxGeometry x="590" y="150" width="220" height="30" as="geometry" />
        </mxCell>
        <mxCell id="jR1Ga3pu7Wgp8OdSPmGq-28" value="" style="endArrow=open;html=1;rounded=0;exitX=0;exitY=1;exitDx=0;exitDy=-5;exitPerimeter=0;endFill=0;dashed=1;dashPattern=8 8;" edge="1" parent="1" source="jR1Ga3pu7Wgp8OdSPmGq-24" target="jR1Ga3pu7Wgp8OdSPmGq-20">
          <mxGeometry width="50" height="50" relative="1" as="geometry">
            <mxPoint x="750" y="270" as="sourcePoint" />
            <mxPoint x="700" y="230" as="targetPoint" />
          </mxGeometry>
        </mxCell>
        <mxCell id="jR1Ga3pu7Wgp8OdSPmGq-29" value="return lista de professores" style="text;html=1;align=center;verticalAlign=middle;whiteSpace=wrap;rounded=0;fontSize=11;" vertex="1" parent="1">
          <mxGeometry x="590" y="180" width="220" height="20" as="geometry" />
        </mxCell>
        <mxCell id="jR1Ga3pu7Wgp8OdSPmGq-30" value="" style="endArrow=classic;html=1;rounded=0;" edge="1" parent="1" source="jR1Ga3pu7Wgp8OdSPmGq-20" target="jR1Ga3pu7Wgp8OdSPmGq-16">
          <mxGeometry width="50" height="50" relative="1" as="geometry">
            <mxPoint x="500" y="290" as="sourcePoint" />
            <mxPoint x="550" y="240" as="targetPoint" />
          </mxGeometry>
        </mxCell>
        <mxCell id="jR1Ga3pu7Wgp8OdSPmGq-31" value="exibirListaProfessores()" style="text;html=1;align=center;verticalAlign=middle;whiteSpace=wrap;rounded=0;fontSize=11;" vertex="1" parent="1">
          <mxGeometry x="370" y="220" width="220" height="30" as="geometry" />
        </mxCell>
        <mxCell id="jR1Ga3pu7Wgp8OdSPmGq-32" value="" style="endArrow=classic;html=1;rounded=0;exitX=0;exitY=1;exitDx=0;exitDy=0;" edge="1" parent="1" source="jR1Ga3pu7Wgp8OdSPmGq-33" target="jR1Ga3pu7Wgp8OdSPmGq-16">
          <mxGeometry width="50" height="50" relative="1" as="geometry">
            <mxPoint x="270" y="380" as="sourcePoint" />
            <mxPoint x="320" y="330" as="targetPoint" />
          </mxGeometry>
        </mxCell>
        <mxCell id="jR1Ga3pu7Wgp8OdSPmGq-33" value="selecionarProfessor(Professor professor)" style="text;html=1;align=center;verticalAlign=middle;whiteSpace=wrap;rounded=0;fontSize=11;" vertex="1" parent="1">
          <mxGeometry x="130" y="300" width="220" height="30" as="geometry" />
        </mxCell>
        <mxCell id="jR1Ga3pu7Wgp8OdSPmGq-34" value="" style="endArrow=classic;html=1;rounded=0;" edge="1" parent="1" source="jR1Ga3pu7Wgp8OdSPmGq-16">
          <mxGeometry width="50" height="50" relative="1" as="geometry">
            <mxPoint x="370" y="326" as="sourcePoint" />
            <mxPoint x="600" y="326" as="targetPoint" />
          </mxGeometry>
        </mxCell>
        <mxCell id="jR1Ga3pu7Wgp8OdSPmGq-37" value="enviaSolicitacao()" style="text;html=1;align=center;verticalAlign=middle;whiteSpace=wrap;rounded=0;fontSize=11;" vertex="1" parent="1">
          <mxGeometry x="425" y="300" width="110" height="30" as="geometry" />
        </mxCell>
        <mxCell id="jR1Ga3pu7Wgp8OdSPmGq-39" value="" style="endArrow=none;html=1;rounded=0;dashed=1;dashPattern=8 8;entryX=0.5;entryY=1;entryDx=0;entryDy=0;" edge="1" parent="1" target="jR1Ga3pu7Wgp8OdSPmGq-38">
          <mxGeometry width="50" height="50" relative="1" as="geometry">
            <mxPoint x="795" y="440" as="sourcePoint" />
            <mxPoint x="795" y="210" as="targetPoint" />
          </mxGeometry>
        </mxCell>
        <mxCell id="jR1Ga3pu7Wgp8OdSPmGq-38" value="" style="html=1;points=[[0,0,0,0,5],[0,1,0,0,-5],[1,0,0,0,5],[1,1,0,0,-5]];perimeter=orthogonalPerimeter;outlineConnect=0;targetShapes=umlLifeline;portConstraint=eastwest;newEdgeStyle={&quot;curved&quot;:0,&quot;rounded&quot;:0};" vertex="1" parent="1">
          <mxGeometry x="790" y="320" width="10" height="50" as="geometry" />
        </mxCell>
        <mxCell id="jR1Ga3pu7Wgp8OdSPmGq-40" value="" style="endArrow=classic;html=1;rounded=0;entryX=0;entryY=0;entryDx=0;entryDy=5;entryPerimeter=0;" edge="1" parent="1" source="jR1Ga3pu7Wgp8OdSPmGq-20" target="jR1Ga3pu7Wgp8OdSPmGq-38">
          <mxGeometry width="50" height="50" relative="1" as="geometry">
            <mxPoint x="680" y="410" as="sourcePoint" />
            <mxPoint x="730" y="360" as="targetPoint" />
          </mxGeometry>
        </mxCell>
        <mxCell id="jR1Ga3pu7Wgp8OdSPmGq-41" value="buscarInformacoesProfessor()" style="text;html=1;align=center;verticalAlign=middle;whiteSpace=wrap;rounded=0;fontSize=11;" vertex="1" parent="1">
          <mxGeometry x="620" y="300" width="160" height="30" as="geometry" />
        </mxCell>
        <mxCell id="jR1Ga3pu7Wgp8OdSPmGq-42" value="return informações/lançamentos do professor" style="text;html=1;align=center;verticalAlign=middle;whiteSpace=wrap;rounded=0;fontSize=11;" vertex="1" parent="1">
          <mxGeometry x="620" y="330" width="160" height="30" as="geometry" />
        </mxCell>
        <mxCell id="jR1Ga3pu7Wgp8OdSPmGq-43" value="" style="endArrow=open;html=1;rounded=0;exitX=0;exitY=1;exitDx=0;exitDy=-5;exitPerimeter=0;endFill=0;dashed=1;dashPattern=8 8;entryX=1;entryY=1;entryDx=0;entryDy=-5;entryPerimeter=0;" edge="1" parent="1" source="jR1Ga3pu7Wgp8OdSPmGq-38" target="jR1Ga3pu7Wgp8OdSPmGq-20">
          <mxGeometry width="50" height="50" relative="1" as="geometry">
            <mxPoint x="800" y="215" as="sourcePoint" />
            <mxPoint x="680" y="390" as="targetPoint" />
          </mxGeometry>
        </mxCell>
        <mxCell id="jR1Ga3pu7Wgp8OdSPmGq-44" value="" style="endArrow=classic;html=1;rounded=0;exitX=0;exitY=1;exitDx=0;exitDy=-5;exitPerimeter=0;" edge="1" parent="1" source="jR1Ga3pu7Wgp8OdSPmGq-20" target="jR1Ga3pu7Wgp8OdSPmGq-16">
          <mxGeometry width="50" height="50" relative="1" as="geometry">
            <mxPoint x="370" y="335" as="sourcePoint" />
            <mxPoint x="460" y="360" as="targetPoint" />
          </mxGeometry>
        </mxCell>
        <mxCell id="jR1Ga3pu7Wgp8OdSPmGq-45" value="exibirInformacoesProfessor()" style="text;html=1;align=center;verticalAlign=middle;whiteSpace=wrap;rounded=0;fontSize=11;" vertex="1" parent="1">
          <mxGeometry x="370" y="340" width="220" height="30" as="geometry" />
        </mxCell>
        <mxCell id="jR1Ga3pu7Wgp8OdSPmGq-47" value="Requsito-11: Visualização das informações dos professores e Lançamentos&amp;nbsp;" style="text;html=1;align=center;verticalAlign=middle;whiteSpace=wrap;rounded=0;fontStyle=1;fontSize=15;" vertex="1" parent="1">
          <mxGeometry x="235" y="-10" width="470" height="30" as="geometry" />
        </mxCell>
      </root>
    </mxGraphModel>
  </diagram>
</mxfile>
